<svg xmlns="http://www.w3.org/2000/svg" viewBox="0 0 226.77 161.81"><defs><style>.cls-1{fill:currentColor;}.cls-2{fill:none;stroke:currentColor;stroke-miterlimit:10;stroke-width:3px;}</style></defs><g id="Layer_2" data-name="Layer 2"><g id="Layer_1-2" data-name="Layer 1"><path class="cls-1" d="M31.84,151.81h1.39v9.9H31.84Zm.72,4.73h3.16a1.46,1.46,0,0,0,.79-.21,1.35,1.35,0,0,0,.53-.6,1.91,1.91,0,0,0,.19-.89,2,2,0,0,0-.19-.9,1.4,1.4,0,0,0-.53-.6,1.46,1.46,0,0,0-.79-.21H32.56v-1.32h3.12a3.09,3.09,0,0,1,1.55.37,2.7,2.7,0,0,1,1.05,1.07,3.28,3.28,0,0,1,.37,1.59,3.22,3.22,0,0,1-.37,1.59,2.61,2.61,0,0,1-1.05,1.06,3.1,3.1,0,0,1-1.55.38H32.56Zm14.8-4.73h1.39v9.9H47.36Zm.86,4.36h5.5v1.32h-5.5ZM53,151.81h1.39v9.9H53Zm12.26,9.54A3.08,3.08,0,0,1,64,160.07a4,4,0,0,1-.43-1.91v-2.81a4,4,0,0,1,.43-1.91,3.14,3.14,0,0,1,1.22-1.28,3.66,3.66,0,0,1,1.83-.46,3.59,3.59,0,0,1,1.82.46,3.08,3.08,0,0,1,1.22,1.28,4,4,0,0,1,.44,1.91v2.81a4,4,0,0,1-.44,1.91,3,3,0,0,1-1.22,1.28,3.49,3.49,0,0,1-1.82.46A3.55,3.55,0,0,1,65.24,161.35Zm2.91-1.19a1.82,1.82,0,0,0,.72-.78,2.58,2.58,0,0,0,.25-1.17v-2.9a2.59,2.59,0,0,0-.25-1.18,1.82,1.82,0,0,0-.72-.78,2.22,2.22,0,0,0-2.16,0,1.82,1.82,0,0,0-.72.78,2.6,2.6,0,0,0-.26,1.18v2.9a2.58,2.58,0,0,0,.26,1.17,1.82,1.82,0,0,0,.72.78,2.22,2.22,0,0,0,2.16,0Zm10.25-8.35h7v1.32h-7Zm2.8.81h1.39v9.09H81.2Zm13.7,8.73a3,3,0,0,1-1.22-1.28,4,4,0,0,1-.44-1.91v-2.81a4,4,0,0,1,.44-1.91,3,3,0,0,1,1.22-1.28,3.62,3.62,0,0,1,1.82-.46,3.66,3.66,0,0,1,1.83.46,3.14,3.14,0,0,1,1.22,1.28,4,4,0,0,1,.43,1.91v2.81a4,4,0,0,1-.43,1.91,3.08,3.08,0,0,1-1.22,1.28,3.55,3.55,0,0,1-1.83.46A3.52,3.52,0,0,1,94.9,161.35Zm2.9-1.19a1.82,1.82,0,0,0,.72-.78,2.46,2.46,0,0,0,.26-1.17v-2.9a2.47,2.47,0,0,0-.26-1.18,1.82,1.82,0,0,0-.72-.78,2,2,0,0,0-1.08-.28,2,2,0,0,0-1.08.28,1.82,1.82,0,0,0-.72.78,2.59,2.59,0,0,0-.25,1.18v2.9a2.58,2.58,0,0,0,.25,1.17,1.82,1.82,0,0,0,.72.78,2,2,0,0,0,1.08.28A2,2,0,0,0,97.8,160.16Zm18.11-3.79v1.73a4.31,4.31,0,0,1-.42,2,3.19,3.19,0,0,1-1.22,1.3,3.59,3.59,0,0,1-1.82.46,3.88,3.88,0,0,1-1.84-.43,3,3,0,0,1-1.23-1.23,3.7,3.7,0,0,1-.44-1.83V155.4a4.3,4.3,0,0,1,.43-1.94,3.13,3.13,0,0,1,1.22-1.3,3.59,3.59,0,0,1,1.82-.46,3.46,3.46,0,0,1,1.57.37,3.3,3.3,0,0,1,1.2,1,3.79,3.79,0,0,1,.65,1.55h-1.5a2,2,0,0,0-.42-.86,1.94,1.94,0,0,0-1.5-.73,2,2,0,0,0-1.08.29,2,2,0,0,0-.71.82,2.79,2.79,0,0,0-.25,1.23v2.92a2.23,2.23,0,0,0,.26,1.12,1.82,1.82,0,0,0,.73.75,2.25,2.25,0,0,0,1.09.26,2,2,0,0,0,1.07-.27,1.87,1.87,0,0,0,.72-.8,2.85,2.85,0,0,0,.25-1.25v-.43h-2v-1.33ZM125,151.8h1.39v9.91H125Zm.6,4.4H129a1.36,1.36,0,0,0,.7-.19,1.24,1.24,0,0,0,.47-.54,2,2,0,0,0,0-1.62,1.24,1.24,0,0,0-1.17-.73H125.6V151.8h3.32a3.15,3.15,0,0,1,1.51.35,2.46,2.46,0,0,1,1,1,3.3,3.3,0,0,1,0,3,2.49,2.49,0,0,1-1,1,3.09,3.09,0,0,1-1.51.36H125.6Zm2.7,1,1.38-.31,2.53,4.81h-1.64Zm15.11-5.4h1.19l3.65,9.9h-1.5l-2.75-8-2.74,8h-1.5Zm-2,6.4h5.2v1.32h-5.2Zm15.27-6.4h1.38v9.9h-1.38Zm.71,4.73h3.17a1.48,1.48,0,0,0,.79-.21,1.39,1.39,0,0,0,.52-.6,1.91,1.91,0,0,0,.19-.89,2,2,0,0,0-.19-.9,1.45,1.45,0,0,0-.52-.6,1.48,1.48,0,0,0-.79-.21h-3.17v-1.32h3.12a3.16,3.16,0,0,1,1.56.37,2.68,2.68,0,0,1,1,1.07,3.28,3.28,0,0,1,.37,1.59,3.22,3.22,0,0,1-.37,1.59,2.59,2.59,0,0,1-1,1.06,3.16,3.16,0,0,1-1.56.38h-3.12Zm14.8-4.73h1.39v9.9h-1.39Zm.86,4.36h5.5v1.32h-5.5Zm4.76-4.36h1.39v9.9h-1.39Zm14.06,5.87v4h-1.39v-4l-3-5.87h1.54l2.17,4.46,2.16-4.46h1.55Zm-186.35-25A15.2,15.2,0,0,1,0,120.4a14.72,14.72,0,0,1,5.79-12.19,22.16,22.16,0,0,1,14-4.49c6.72,0,12.19,2.11,16.39,6.26l-2.1,2.71c-3.5-4-8.22-6-14.2-6a18.08,18.08,0,0,0-11.54,3.74,12.07,12.07,0,0,0-4.86,10,12.44,12.44,0,0,0,4.72,10.14,17.81,17.81,0,0,0,11.68,3.83c5.79-.05,10.32-1.78,13.64-5.23l2.19,2.42a19.31,19.31,0,0,1-7.28,4.3,26,26,0,0,1-8.64,1.4C13.92,137.26,9.2,135.77,5.56,132.73Zm55.31-9.29V136.8H57.65l-.14-13.13c0-3.18-.7-5.19-1.82-6.21s-2.76-1.59-5.09-1.59a9.27,9.27,0,0,0-5.94,2c-1.63,1.22-2.42,3.13-2.47,5.79L42,136.8H38.78V104.19H42v12.75a9.3,9.3,0,0,1,2.81-2.52A12.89,12.89,0,0,1,51,113a10.69,10.69,0,0,1,7.29,2.34C60,116.85,60.87,119.56,60.87,123.44Zm28.69-10V136.8H86.34v-3.51c-2.15,2.48-5.8,4-9.91,4-8,0-13-4.9-13-12.14S68.63,113,76.48,113c4.39,0,8,1.45,10,4.21v-3.74Zm-3.27,11.68c0-5.75-3.46-9.25-9.62-9.25-6,0-9.67,3.64-9.77,9.25-.09,5.46,3.6,9.2,9.77,9.2,5.93,0,9.62-3.55,9.62-8.64Zm-8.64-17.29H75.31l-4.77-6.63h3.93Zm36.58,15.61V136.8H111l-.14-13.13c0-3.13-.61-5.19-1.73-6.21a7.13,7.13,0,0,0-5.09-1.59,9.27,9.27,0,0,0-6,2c-1.64,1.22-2.48,3.18-2.53,5.79l-.14,13.18H92.08V113.44h3.18v3.36a8,8,0,0,1,2.8-2.43,13,13,0,0,1,6.22-1.4,10.71,10.71,0,0,1,7.33,2.34C113.34,116.85,114.23,119.56,114.23,123.44Zm27.89-10v21.49c0,8.27-5,11.72-12.76,11.72-5.83,0-10.88-2.61-11.67-7.42l3.17-1.5c.28,4,4,6.17,8.5,6.17,6.54,0,9.58-3,9.58-9.39v-1.36c-2.38,2.76-6.21,4-9.9,4-7.48,0-12.94-4.72-12.94-12.28s5.7-11.87,13-11.87c4,0,7.85,1.68,9.91,4.16l-.05-3.69Zm-3.27,11.4c0-6-3.93-9-9.53-9s-9.67,3.13-9.76,9,4.15,9.48,9.76,9.48c5.28,0,9.53-3.46,9.53-8.92Zm35.6-6.07h16.07v18H187.2l.09-5.94a14.26,14.26,0,0,1-5.09,4.21,20.72,20.72,0,0,1-9.71,2.19c-10.89,0-18.08-6.72-18.08-16.86,0-9.81,8.27-16.68,19.9-16.68,6.82,0,12.24,2.11,16.21,6.36l-2.2,2.43c-3.41-3.88-8.08-5.84-14-5.84-9.72,0-16.16,5.37-16.4,13.73.09,8.5,5.89,14,14.76,14,4.44,0,7.94-1.17,10.61-3.37a10.65,10.65,0,0,0,4-8.5v-1.07h-12.8Zm23.08-14.58V109h-3.74v-4.77ZM194,113.44h3.41l-.19,23.36H194Zm5.6,11.77c0-7.33,5.94-12.24,13.55-12.24,7.8,0,13.64,5,13.64,12.24s-5.88,12-13.64,12C205.7,137.26,199.58,132.69,199.58,125.21Zm13.6,9.06c5.7,0,10.23-3.41,10.13-9.06s-4.25-9.34-10.13-9.29c-6,0-10.05,3.83-10.14,9.29S207.39,134.27,213.18,134.27Zm1.49-26.44H212l3.37-6.63h4Z"/><polyline class="cls-2" points="66.88 12.85 40.05 12.85 40.05 85.72 66.88 85.72"/><polyline class="cls-2" points="163.45 85.72 190.29 85.72 190.29 12.85 163.45 12.85"/><path class="cls-1" d="M146.14,21.07c0-.11-.12-.11-.23-.23a38.68,38.68,0,0,0-14.4-9.14A37.53,37.53,0,0,0,100.9,33.29a23.18,23.18,0,0,1,33.24-.57c.12,0,.12.12.23.12Z"/><path class="cls-1" d="M132.72,67a23.05,23.05,0,0,1-14.92,5.48c-13.36,0-23.51-10.7-23.19-24.79a39.85,39.85,0,0,1,31.88-37.47,4.65,4.65,0,0,0-1.26-.23A40,40,0,0,0,77.82,49.17,40,40,0,0,0,153.61,67Z"/><path class="cls-1" d="M155,63.76a40.09,40.09,0,0,0,2.75-14.59,15.15,15.15,0,0,0-.11-2.17H131.87l-16.7,16.76Z"/><path class="cls-1" d="M159.26,70.52A54.82,54.82,0,0,1,155,76.88a50.88,50.88,0,0,1-8.37,8.28,48.21,48.21,0,0,1-13.21,7.28c-1.33.4-2.63.93-4,1.22l-2.1.52-2.18.36c-1.45.3-3,.35-4.47.53-.76.05-1.53,0-2.3.07l-1.17,0h-.22c.17,0,0,0,0,0l-.3,0-.61,0L113.59,95l-1.24-.08c-.42,0-.78-.12-1.17-.18l-2.34-.4-1.17-.19-1.18-.33a38.52,38.52,0,0,1-4.74-1.44l-2.35-.88c-.77-.32-1.52-.73-2.29-1.09a45.51,45.51,0,0,1-16-13l-1.6-2.12c-.53-.72-.95-1.51-1.43-2.26s-1-1.49-1.35-2.31l-1.17-2.41c-.18-.41-.41-.8-.57-1.22l-.46-1.26-.94-2.52c-.26-.86-.45-1.74-.69-2.6A21.19,21.19,0,0,1,72.27,58l-.43-2.66c-.06-.44-.17-.88-.2-1.33l-.08-1.34L71.39,50l0-.34s0,.19,0,.05v-.27l0-.71,0-1.42c.05-.93,0-1.92.15-2.8L72,41.93l.18-1.28c.07-.43.2-.87.3-1.3l.63-2.58A46.71,46.71,0,0,1,98.67,7.08c1.46-.56,2.88-1.19,4.32-1.68s2.9-.86,4.34-1.22l4.29-.81L115.83,3a50.73,50.73,0,0,1,15,1.7l3.14,1a12.63,12.63,0,0,1,1.46.56l1.39.59a39.69,39.69,0,0,1,4.88,2.39l1,.58,1,.62,1.72,1.14A23.75,23.75,0,0,1,148,13.52l2.12,1.72-1.94-1.93a23.64,23.64,0,0,0-2.43-2.22l-1.62-1.33L143.25,9l-1-.68a41.88,41.88,0,0,0-4.78-2.88,30.25,30.25,0,0,0-2.85-1.41L131.42,2.8A50.09,50.09,0,0,0,115.78,0,47.85,47.85,0,0,0,97.15,3.49,48.39,48.39,0,0,0,79.62,15.55l-1.9,2.08L76,19.88a43,43,0,0,0-3.16,4.78,20.85,20.85,0,0,0-1.37,2.55L70.2,29.84c-.37.9-.68,1.83-1,2.74L68.68,34l-.25.69-.18.72c-.25.95-.49,1.91-.73,2.87-.11.48-.26,1-.35,1.44L67,41.2l-.44,3c-.13,1-.12,1.9-.18,2.86l-.07,1.42,0,.71v.26a1.5,1.5,0,0,0,0,.22l0,.38.15,3,.09,1.5c0,.5.14,1,.2,1.48l.47,3a26.39,26.39,0,0,0,.7,2.92c.27,1,.5,1.94.8,2.89l1.06,2.81.54,1.4c.18.46.43.9.64,1.35l1.32,2.67c.43.91,1,1.71,1.53,2.56s1,1.71,1.6,2.5l1.8,2.35a48.47,48.47,0,0,0,18,14.05c.85.38,1.68.8,2.54,1.14l2.61.9A36.6,36.6,0,0,0,105.54,98l1.31.3,1.34.18,2.68.33c.43,0,.89.13,1.3.14l1.25,0,2.46,0,.61,0h.72l1.26-.08c.83-.06,1.66-.09,2.48-.17a48.33,48.33,0,0,0,4.79-.79l2.31-.52,2.22-.68c1.48-.4,2.85-1,4.23-1.54a47.26,47.26,0,0,0,13.4-8.53,48,48,0,0,0,7.94-9.2,49.16,49.16,0,0,0,3.68-6.85l1-2.53Z"/><path class="cls-1" d="M146.14,21.07c0-.11-.12-.11-.23-.23a38.68,38.68,0,0,0-14.4-9.14A37.53,37.53,0,0,0,100.9,33.29a23.18,23.18,0,0,1,33.24-.57c.12,0,.12.12.23.12Z"/><path class="cls-1" d="M132.72,67a23.05,23.05,0,0,1-14.92,5.48c-13.36,0-23.51-10.7-23.19-24.79a39.85,39.85,0,0,1,31.88-37.47,4.65,4.65,0,0,0-1.26-.23A40,40,0,0,0,77.82,49.17,40,40,0,0,0,153.61,67Z"/><path class="cls-1" d="M155,63.76a40.09,40.09,0,0,0,2.75-14.59,15.15,15.15,0,0,0-.11-2.17H131.87l-16.7,16.76Z"/><path class="cls-1" d="M159.26,70.52A54.82,54.82,0,0,1,155,76.88a50.88,50.88,0,0,1-8.37,8.28,48.21,48.21,0,0,1-13.21,7.28c-1.33.4-2.63.93-4,1.22l-2.1.52-2.18.36c-1.45.3-3,.35-4.47.53-.76.05-1.53,0-2.3.07l-1.17,0h-.22c.17,0,0,0,0,0l-.3,0-.61,0L113.59,95l-1.24-.08c-.42,0-.78-.12-1.17-.18l-2.34-.4-1.17-.19-1.18-.33a38.52,38.52,0,0,1-4.74-1.44l-2.35-.88c-.77-.32-1.52-.73-2.29-1.09a45.51,45.51,0,0,1-16-13l-1.6-2.12c-.53-.72-.95-1.51-1.43-2.26s-1-1.49-1.35-2.31l-1.17-2.41c-.18-.41-.41-.8-.57-1.22l-.46-1.26-.94-2.52c-.26-.86-.45-1.74-.69-2.6A21.19,21.19,0,0,1,72.27,58l-.43-2.66c-.06-.44-.17-.88-.2-1.33l-.08-1.34L71.39,50l0-.34s0,.19,0,.05v-.27l0-.71,0-1.42c.05-.93,0-1.92.15-2.8L72,41.93l.18-1.28c.07-.43.2-.87.3-1.3l.63-2.58A46.71,46.71,0,0,1,98.67,7.08c1.46-.56,2.88-1.19,4.32-1.68s2.9-.86,4.34-1.22l4.29-.81L115.83,3a50.73,50.73,0,0,1,15,1.7l3.14,1a12.63,12.63,0,0,1,1.46.56l1.39.59a39.69,39.69,0,0,1,4.88,2.39l1,.58,1,.62,1.72,1.14A23.75,23.75,0,0,1,148,13.52l2.12,1.72-1.94-1.93a23.64,23.64,0,0,0-2.43-2.22l-1.62-1.33L143.25,9l-1-.68a41.88,41.88,0,0,0-4.78-2.88,30.25,30.25,0,0,0-2.85-1.41L131.42,2.8A50.09,50.09,0,0,0,115.78,0,47.85,47.85,0,0,0,97.15,3.49,48.39,48.39,0,0,0,79.62,15.55l-1.9,2.08L76,19.88a43,43,0,0,0-3.16,4.78,20.85,20.85,0,0,0-1.37,2.55L70.2,29.84c-.37.9-.68,1.83-1,2.74L68.68,34l-.25.69-.18.72c-.25.95-.49,1.91-.73,2.87-.11.48-.26,1-.35,1.44L67,41.2l-.44,3c-.13,1-.12,1.9-.18,2.86l-.07,1.42,0,.71v.26a1.5,1.5,0,0,0,0,.22l0,.38.15,3,.09,1.5c0,.5.14,1,.2,1.48l.47,3a26.39,26.39,0,0,0,.7,2.92c.27,1,.5,1.94.8,2.89l1.06,2.81.54,1.4c.18.46.43.9.64,1.35l1.32,2.67c.43.91,1,1.71,1.53,2.56s1,1.71,1.6,2.5l1.8,2.35a48.47,48.47,0,0,0,18,14.05c.85.38,1.68.8,2.54,1.14l2.61.9A36.6,36.6,0,0,0,105.54,98l1.31.3,1.34.18,2.68.33c.43,0,.89.13,1.3.14l1.25,0,2.46,0,.61,0h.72l1.26-.08c.83-.06,1.66-.09,2.48-.17a48.33,48.33,0,0,0,4.79-.79l2.31-.52,2.22-.68c1.48-.4,2.85-1,4.23-1.54a47.26,47.26,0,0,0,13.4-8.53,48,48,0,0,0,7.94-9.2,49.16,49.16,0,0,0,3.68-6.85l1-2.53Z"/></g></g></svg>
